<svg xmlns="http://www.w3.org/2000/svg" version="1.1" xmlns:xlink="http://www.w3.org/1999/xlink" width="512" height="512" x="0" y="0" viewBox="0 0 64 64" style="enable-background:new 0 0 512 512" xml:space="preserve" class=""><g><g fill="#000"><path fill-rule="evenodd" d="M16.302 2C9.325 2 3.266 7.164 2.617 14.233c-.825 9.003-.822 16.485.005 25.522.54 5.893 4.837 10.467 10.296 11.829C14.348 57.7 19.947 62 26.313 62h21.351c6.951 0 12.998-5.127 13.675-12.167.879-9.128.88-16.648.009-25.685-.566-5.86-4.855-10.386-10.284-11.735C49.644 6.288 44.038 2 37.681 2zm-3.685 22.233c-.747 8.145-.815 15.045-.209 22.979-3.166-1.342-5.477-4.27-5.802-7.822-.806-8.796-.808-16.033-.005-24.792C7.049 9.708 11.27 6 16.302 6h21.379c4.092 0 7.65 2.452 9.07 6H26.302c-6.977 0-13.037 5.164-13.685 12.233zM26.302 16c-5.032 0-9.253 3.708-9.701 8.598-.803 8.759-.8 15.996.005 24.792.448 4.897 4.672 8.61 9.707 8.61h21.351c5.013 0 9.225-3.681 9.694-8.55.854-8.876.855-16.138.008-24.918C56.897 19.672 52.69 16 47.681 16z" clip-rule="evenodd" fill="#4f9c40" opacity="1" data-original="#000000" class=""></path><path d="M39 27a2 2 0 1 0-4 0v8h-8a2 2 0 1 0 0 4h8v8a2 2 0 1 0 4 0v-8h8a2 2 0 1 0 0-4h-8z" fill="#4f9c40" opacity="1" data-original="#000000" class=""></path></g></g></svg>