<svg xmlns="http://www.w3.org/2000/svg" version="1.1" xmlns:xlink="http://www.w3.org/1999/xlink" width="50" height="50" x="0" y="0" viewBox="0 0 512 512" style="enable-background:new 0 0 512 512" xml:space="preserve"><g><path d="M25.028 227.498h18.315v57.057H25.028c-9.448 0-17.101-7.706-17.101-17.154V244.6c0-9.449 7.653-17.102 17.101-17.102zM172.922 227.498h166.104v57.057H172.922zM504.073 244.599V267.4c0 9.448-7.653 17.154-17.101 17.154h-18.368v-57.057h18.368c9.448.001 17.101 7.654 17.101 17.102zM162.366 134.866v242.267a7.906 7.906 0 0 1-7.917 7.917h-28.608c-14.145 0-25.652-11.506-25.652-25.652v-26.655H79.498c-14.093 0-25.599-11.506-25.599-25.652V204.908c0-14.145 11.506-25.652 25.599-25.652h20.691v-26.655c0-14.145 11.506-25.652 25.652-25.652h28.608a7.907 7.907 0 0 1 7.917 7.917zM458.048 204.908v102.185c0 14.145-11.454 25.652-25.599 25.652h-20.69V359.4c0 14.145-11.506 25.652-25.652 25.652h-28.608c-4.328 0-7.917-3.536-7.917-7.917V134.866c0-4.381 3.589-7.917 7.917-7.917h28.608c14.145 0 25.652 11.506 25.652 25.652v26.655h20.69c14.145 0 25.599 11.506 25.599 25.652z" fill="#ffffff" opacity="1" data-original="#000000"></path></g></svg>