<svg xmlns="http://www.w3.org/2000/svg" version="1.1" xmlns:xlink="http://www.w3.org/1999/xlink" width="50px" height="50px" x="0" y="0" viewBox="0 0 31 57" style="enable-background:new 0 0 512 512" xml:space="preserve" class=""><g><g fill="#000" fill-rule="nonzero"><path d="M23.57 47.5a8.535 8.535 0 0 1-17.07 0v-4.71c0-1.47-.177-2.937-.528-4.365L3.45 28.019c-.427-1.749-.852-3.5-1.278-5.227l-.395-1.584c-.843-3.241-1.8-6.914-.715-10.715A14.557 14.557 0 0 1 23.044 2.4a14.332 14.332 0 0 1 5.965 8.1c.492 1.833.605 3.747.332 5.625l-2.93-.712a10.857 10.857 0 0 0-.28-4.086A11.653 11.653 0 0 0 21.392 4.9a11.613 11.613 0 0 0-12.7-.011 11.692 11.692 0 0 0-4.752 6.443c-.842 2.973-.075 5.954.745 9.132.137.535.276 1.079.405 1.618l3.8 15.628c.404 1.663.609 3.368.61 5.08v4.71a5.535 5.535 0 0 0 11.07 0v-4.71c.003-1.362.137-2.72.4-4.057l2.92.674a18.41 18.41 0 0 0-.317 3.383zm.73-10.054-2.955-.683a1 1 0 0 1-.743-1.21l1.938-7.965a1 1 0 0 1 1.208-.735l2.928.712a1 1 0 0 1 .736 1.207l-1.919 7.934a1 1 0 0 1-1.193.74zm6.023-17.964-1.35 5.548a1 1 0 0 1-1.214.734L23.6 24.725a1 1 0 0 1-.728-1.211l1.377-5.541a1 1 0 0 1 1.213-.729l4.129 1.032a1 1 0 0 1 .731 1.206z" fill="#ffffff" opacity="1" data-original="#000000" class=""></path><circle cx="24" cy="32" r="1" fill="#ffffff" opacity="1" data-original="#000000" class=""></circle></g></g></svg>