<svg xmlns="http://www.w3.org/2000/svg" version="1.1" xmlns:xlink="http://www.w3.org/1999/xlink" width="50" height="50ß" x="0" y="0" viewBox="0 0 512 512" style="enable-background:new 0 0 512 512" xml:space="preserve" class=""><g><path d="M433.121 85.076C385.56 61.296 322.657 48.199 256 48.199S126.44 61.296 78.879 85.076C28.013 110.509 0 145.533 0 183.699c0 38.166 28.013 73.191 78.879 98.623 47.561 23.78 110.464 36.877 177.121 36.877s129.56-13.097 177.121-36.877C483.987 256.89 512 221.865 512 183.699c0-38.166-28.013-73.19-78.879-98.623z" fill="#ffffff" opacity="1" data-original="#000000" class=""></path><path d="M446.538 309.155C394.892 334.978 327.224 349.199 256 349.199s-138.892-14.222-190.538-40.044C38.027 295.438 16.03 278.992 0 260.227v68.074c0 38.164 28.013 73.189 78.879 98.623C126.44 450.703 189.343 463.801 256 463.801s129.56-13.098 177.121-36.877C483.987 401.49 512 366.465 512 328.301v-68.074c-16.03 18.765-38.027 35.211-65.462 48.928z" fill="#ffffff" opacity="1" data-original="#000000" class=""></path></g></svg>